#!OML:ASF F:\VICON\USERDATA\INSTALL\rory3\rory3.ASF
:FULLY-SPECIFIED
:DEGREES
4148
root 12.6133 17.9316 -7.03732 -1796.48 44.356 -355.671
lowerback 11.9539 0.127644 -4.82548
upperback 0.573998 -0.385452 1.30975
thorax -6.07011 -0.0290272 4.17814
lowerneck -15.1221 -7.42919 -11.3906
upperneck 26.5914 -10.307 10.2947
head 12.4791 -4.44752 4.23273
rclavicle -5.40694e-014 1.27222e-014
rhumerus -34.4655 -9.4418 -78.0456
rradius 39.1094
rwrist 1.27288
rhand -17.298 7.18746
rfingers 7.12502
rthumb 8.94776 -22.6028
lclavicle -5.40694e-014 1.27222e-014
lhumerus -33.892 1.6616 71.7727
lradius 29.8365
lwrist -8.29828
lhand -17.7697 25.053
lfingers 7.12502
lthumb 8.49255 54.8622
rfemur -26.5805 -18.8637 20.4717
rtibia 37.4456
rfoot -12.8614 -14.5393
rtoes 16.9737
lfemur 0.395551 -1.75924 -19.5103
ltibia 14.9057
lfoot -8.70806 15.0872
ltoes -3.61659
4149
root 12.6361 17.9343 -7.00263 -1796.61 43.509 -355.871
lowerback 11.9191 0.0815071 -4.8307
upperback 0.559347 -0.442168 1.37778
thorax -6.05952 -0.055945 4.2627
lowerneck -15.1147 -7.41788 -11.4182
upperneck 26.6098 -10.2913 10.2966
head 12.4846 -4.44513 4.24126
rclavicle 4.16454e-014 1.19271e-015
rhumerus -34.6065 -9.57969 -78.0291
rradius 39.0048
rwrist 1.64138
rhand -17.1717 7.33098
rfingers 7.12502
rthumb 9.06964 -22.454
lclavicle 4.16454e-014 1.19271e-015
lhumerus -33.8633 1.41506 71.8835
lradius 29.8649
lwrist -8.1266
lhand -17.6086 24.9517
lfingers 7.12502
lthumb 8.64801 54.7546
rfemur -26.7513 -18.7445 20.6965
rtibia 36.4214
rfoot -12.0911 -15.47
rtoes 18.1537
lfemur 1.01527 -1.67572 -19.4862
ltibia 14.1853
lfoot -8.39923 15.8933
ltoes -3.66167
4150
root 12.6597 17.9413 -6.96232 -1796.61 42.727 -355.863
lowerback 11.7988 0.00822698 -4.97495
upperback 0.633734 -0.549793 1.40575
thorax -5.89979 -0.110739 4.38954
lowerneck -15.3144 -7.44056 -11.3798
upperneck 26.6161 -10.2998 10.2191
head 12.5221 -4.45055 4.19752
rclavicle 7.08667e-014 1.19271e-015
rhumerus -34.5812 -9.50917 -78.0894
rradius 38.8259
rwrist 1.75682
rhand -17.3491 7.45111
rfingers 7.12502
rthumb 8.89851 -22.3413
lclavicle 7.08667e-014 1.19271e-015
lhumerus -33.708 1.38447 71.9212
lradius 29.8429
lwrist -8.11812
lhand -17.6057 24.7773
lfingers 7.12502
lthumb 8.65086 54.5801
rfemur -26.8201 -18.4712 20.6755
rtibia 35.4226
rfoot -11.5236 -16.5561
rtoes 19.3155
lfemur 1.71424 -1.67797 -19.6207
ltibia 13.361
lfoot -7.95656 16.6813
ltoes -4.31287
4151
root 12.6858 17.9467 -6.91779 -1796.5 41.8866 -355.79
lowerback 11.6159 -0.0577073 -5.12722
upperback 0.662098 -0.649894 1.37901
thorax -5.7547 -0.161585 4.4604
lowerneck -15.4433 -7.44507 -11.3821
upperneck 26.6158 -10.311 10.2559
head 12.5528 -4.44966 4.2068
rclavicle 1.02871e-014 -1.70955e-014
rhumerus -34.6208 -9.39654 -78.2355
rradius 38.5312
rwrist 2.40571
rhand -18.2587 7.98003
rfingers 7.12502
rthumb 8.0207 -21.8478
lclavicle 1.02871e-014 -1.70955e-014
lhumerus -33.4947 1.54675 71.8678
lradius 29.6795
lwrist -8.28129
lhand -17.7102 24.9651
lfingers 7.12502
lthumb 8.55003 54.772
rfemur -26.9643 -18.3048 20.6634
rtibia 34.465
rfoot -10.7335 -17.4732
rtoes 18.7219
lfemur 2.39004 -1.53945 -19.7892
ltibia 12.4967
lfoot -7.65949 17.3352
ltoes -4.31961
4152
root 12.7125 17.9457 -6.87333 -1796.51 41.071 -355.842
lowerback 11.5744 -0.129857 -5.13342
upperback 0.607306 -0.747842 1.3552
thorax -5.77863 -0.208325 4.45434
lowerneck -15.4546 -7.44765 -11.4533
upperneck 26.6629 -10.3493 10.4065
head 12.5938 -4.45671 4.27225
rclavicle 4.77083e-014 -7.15625e-015
rhumerus -34.8732 -9.37032 -78.3585
rradius 38.2327
rwrist 3.58267
rhand -19.2167 8.53625
rfingers 7.12502
rthumb 7.09596 -21.3248
lclavicle 4.77083e-014 -7.15625e-015
lhumerus -33.2892 1.77332 71.7682
lradius 29.3539
lwrist -8.5528
lhand -17.6461 25.1777
lfingers 7.12502
lthumb 8.6119 54.9821
rfemur -27.0516 -18.0723 20.7146
rtibia 33.5852
rfoot -10.0414 -18.2887
rtoes 18.4536
lfemur 3.13704 -1.22488 -19.8253
ltibia 11.5591
lfoot -7.3919 17.8006
ltoes -4.14801
4153
root 12.7381 17.9471 -6.82995 -1796.51 40.3507 -355.887
lowerback 11.5487 -0.229183 -5.14788
upperback 0.55128 -0.881358 1.37018
thorax -5.80797 -0.271548 4.50023
lowerneck -15.4894 -7.44131 -11.4551
upperneck 26.6952 -10.3468 10.412
head 12.6141 -4.45571 4.2749
rclavicle 8.87077e-014 -7.95139e-016
rhumerus -35.1247 -9.23657 -78.3996
rradius 38.2701
rwrist 3.43166
rhand -18.8556 8.24362
rfingers 7.12502
rthumb 7.44455 -21.6054
lclavicle 8.87077e-014 -7.95139e-016
lhumerus -33.2189 1.82814 71.7906
lradius 29.3049
lwrist -8.51032
lhand -17.6963 25.5079
lfingers 7.12502
lthumb 8.56341 55.3142
rfemur -27.0768 -17.6117 20.6496
rtibia 32.8036
rfoot -9.83969 -19.1585
rtoes 20.1754
lfemur 3.87873 -1.15399 -19.8848
ltibia 10.6178
lfoot -7.21256 18.3829
ltoes -3.5915
4154
root 12.7622 17.9506 -6.78506 -1796.49 39.5932 -355.933
lowerback 11.4577 -0.283706 -5.1315
upperback 0.508746 -0.949431 1.3566
thorax -5.79465 -0.305493 4.48593
lowerneck -15.4354 -7.46578 -11.4314
upperneck 26.6745 -10.3925 10.3926
head 12.5979 -4.47965 4.25536
rclavicle 2.02263e-014 -1.03368e-014
rhumerus -35.2975 -9.33325 -78.312
rradius 38.4226
rwrist 2.34506
rhand -17.5627 8.03506
rfingers 7.12502
rthumb 8.6924 -21.766
lclavicle 2.02263e-014 -1.03368e-014
lhumerus -33.122 1.60987 71.9171
lradius 29.3557
lwrist -8.26484
lhand -17.8371 25.9201
lfingers 7.12502
lthumb 8.42758 55.732
rfemur -27.089 -16.951 20.5627
rtibia 32.1221
rfoot -9.53412 -19.9233
rtoes 21.7848
lfemur 4.60387 -0.951398 -19.939
ltibia 9.66841
lfoot -7.14491 18.8917
ltoes -2.68992
4155
root 12.785 17.953 -6.73784 -1796.44 38.7942 -355.947
lowerback 11.3559 -0.323315 -5.11171
upperback 0.477712 -0.997961 1.3175
thorax -5.76592 -0.330989 4.43892
lowerneck -15.4602 -7.49574 -11.442
upperneck 26.6913 -10.4404 10.4012
head 12.6177 -4.50182 4.25146
rclavicle 5.91384e-014 3.57812e-015
rhumerus -35.3635 -9.56922 -78.2525
rradius 38.3344
rwrist 2.0564
rhand -16.8243 7.94776
rfingers 7.12502
rthumb 9.4049 -21.8224
lclavicle 5.91384e-014 3.57812e-015
lhumerus -32.9712 1.67348 71.9236
lradius 29.3232
lwrist -8.27332
lhand -17.7323 25.462
lfingers 7.12502
lthumb 8.52871 55.2697
rfemur -27.1365 -16.1876 20.4534
rtibia 31.5605
rfoot -9.10813 -20.6539
rtoes 22.924
lfemur 5.398 -0.7092 -20.0101
ltibia 8.55754
lfoot -6.85554 19.4109
ltoes -2.6455
4156
root 12.8098 17.9506 -6.68498 -1796.36 38.0546 -355.83
lowerback 11.292 -0.37001 -5.21796
upperback 0.4568 -1.07286 1.29269
thorax -5.74239 -0.365846 4.48355
lowerneck -15.5918 -7.50901 -11.505
upperneck 26.742 -10.4439 10.4173
head 12.6713 -4.50502 4.26578
rclavicle 7.78739e-014 -1.98785e-015
rhumerus -35.3583 -9.75608 -78.1729
rradius 38.1391
rwrist 2.1735
rhand -16.4632 7.57527
rfingers 7.12502
rthumb 9.75331 -22.1789
lclavicle 7.78739e-014 -1.98785e-015
lhumerus -32.8075 2.02736 71.9226
lradius 29.2124
lwrist -8.64267
lhand -17.6239 25.153
lfingers 7.12502
lthumb 8.63327 54.9565
rfemur -27.1406 -15.5508 20.2138
rtibia 31.1423
rfoot -8.61979 -21.3231
rtoes 23.8837
lfemur 6.38707 -0.533755 -20.1815
ltibia 7.2239
lfoot -6.44213 19.9146
ltoes -2.66073
